<svg width="66" height="68" viewBox="0 0 66 68" fill="none" xmlns="http://www.w3.org/2000/svg">
<g id="iconmonstr-weather-114 1" clip-path="url(#clip0)">
<path id="Vector" d="M33 31.1638C36.9518 32.4048 40.0455 35.5952 41.2472 39.6667C42.4572 35.5952 45.551 32.4077 49.5 31.1667C45.551 29.9228 42.4572 26.7382 41.2472 22.6667C40.0455 26.7353 36.9518 29.9228 33 31.1638ZM55.0027 31.1667C57.6372 31.9968 59.697 34.119 60.5027 36.8362C61.303 34.119 63.3682 31.994 66 31.1667C63.3682 30.3393 61.3058 28.2143 60.5 25.5C59.6942 28.2143 57.6345 30.3393 55.0027 31.1667ZM52.2527 5.66667C51.051 9.73817 47.9545 12.9257 44.0083 14.1695C47.9628 15.4162 51.051 18.6008 52.261 22.6752C53.4627 18.6008 56.5593 15.4133 60.5 14.1695C56.5593 12.9313 53.4627 9.73817 52.2527 5.66667V5.66667ZM33 68C14.8032 68 0 52.7482 0 34C0 15.2518 14.8032 0 33 0C38.2085 0 42.9825 1.40817 47.7675 3.3405C39.6605 4.7685 22 12.5942 22 34C22 55.1197 38.2718 62.9227 47.7675 64.6595C43.6425 67.0565 38.2085 68 33 68V68Z" fill="#E64467"/>
</g>
<defs>
<clipPath id="clip0">
<rect width="66" height="68" fill="white"/>
</clipPath>
</defs>
</svg>
