<?xml version="1.0" standalone="no"?><svg xmlns:xlink="http://www.w3.org/1999/xlink" xmlns="http://www.w3.org/2000/svg" viewBox="0 0 341 170.5" preserveAspectRatio="xMaxYMax slice"><g transform="scale(0.2246376811594203)"><rect x="0" y="0" width="1518" height="759" fill="#ffffff"/><rect x="0" y="0" width="151.8" height="151.8" fill="#ffffff"/><rect x="0" y="0" width="75.9" height="75.9" fill="#acb1fc"/><path d="M 0 75.9 A 75.9 75.9 0 0 1  75.9 0 L 75.9 75.9" fill="#8a92fa"/><rect x="75.9" y="0" width="75.9" height="75.9" fill="#5d67f8"/><path d="M 75.9 0 A 75.9 75.9 0 0 1 151.8 75.9 L 75.9 75.9" fill="#9ba2fb"/><rect x="0" y="75.9" width="75.9" height="75.9" fill="#fce8ec"/><path d="M 0 75.9 A 75.9 75.9 0 0 0 75.9 151.8 L 75.9 75.9" fill="#7881f9"/><rect x="75.9" y="75.9" width="75.9" height="75.9" fill="#e85373"/><path d="M 75.9 151.8 A 75.9 75.9 0 0 0 151.8 75.9 L 75.9 75.9" fill="#989ffb"/><rect x="151.8" y="0" width="151.8" height="151.8" fill="#ffffff"/><rect x="151.8" y="0" width="75.9" height="75.9" fill="#ec728d"/><path d="M 151.8 75.9 A 75.9 75.9 0 0 1  227.70000000000002 0 L 227.70000000000002 75.9" fill="#d8dbfd"/><rect x="227.7" y="0" width="75.9" height="75.9" fill="#606af8"/><path d="M 227.7 0 A 75.9 75.9 0 0 1 303.6 75.9 L 227.7 75.9" fill="#fef6f8"/><rect x="151.8" y="75.9" width="75.9" height="75.9" fill="#fbe4e9"/><path d="M 151.8 75.9 A 75.9 75.9 0 0 0 227.70000000000002 151.8 L 227.70000000000002 75.9" fill="#e2e4fe"/><rect x="227.7" y="75.9" width="75.9" height="75.9" fill="#f2a1b2"/><path d="M 227.7 151.8 A 75.9 75.9 0 0 0 303.6 75.9 L 227.7 75.9" fill="#f7c5d0"/><rect x="303.6" y="0" width="151.8" height="151.8" fill="#ffffff"/><rect x="303.6" y="0" width="75.9" height="75.9" fill="#8c93fa"/><circle cx="341.55" cy="37.95" r="37.95" fill="#6670f9"/><rect x="379.5" y="0" width="75.9" height="75.9" fill="#e85172"/><rect x="379.5" y="0" width="75.9" height="75.9" fill="#6973f9"/><rect x="303.6" y="75.9" width="75.9" height="75.9" fill="#9aa1fb"/><circle cx="341.55" cy="113.85000000000001" r="37.95" fill="#ec748e"/><rect x="379.5" y="75.9" width="75.9" height="75.9" fill="#e95978"/><rect x="379.5" y="75.9" width="75.9" height="75.9" fill="#7881f9"/><rect x="455.4" y="0" width="151.8" height="151.8" fill="#fffdfd"/><path d="M 455.4 151.8 A 151.8 151.8 0 0 1  607.2 0 L 607.2 151.8" fill="#d0d3fd"/><rect x="607.2" y="0" width="151.8" height="151.8" fill="#aaaffb"/><polygon points="607.2,0 759,0 759,151.8" fill="#bec2fc"/><rect x="759" y="0" width="151.8" height="151.8" fill="#ffffff"/><rect x="759" y="0" width="75.9" height="75.9" fill="#f08da2"/><path d="M 759 75.9 A 75.9 75.9 0 0 1 834.9 0 L 834.9 18.975 A 56.925000000000004 56.925000000000004 0 0 0 777.975 75.9" fill="#e95a79"/><rect x="834.9" y="0" width="75.9" height="75.9" fill="#fcebef"/><path d="M 834.9 0 A 75.9 75.9 0 0 1 910.8 75.9 L 891.8249999999999 75.9 A 56.925000000000004 56.925000000000004 0 0 0 834.9 18.975" fill="#737cf9"/><rect x="759" y="75.9" width="75.9" height="75.9" fill="#aaaffb"/><path d="M 759 75.9 A 75.9 75.9 0 0 0 834.9 151.8 L 834.9 132.82500000000002 A 56.925000000000004 56.925000000000004 0 0 1 777.975 75.9" fill="#a3a9fb"/><rect x="834.9" y="75.9" width="75.9" height="75.9" fill="#606bf8"/><path d="M 834.9 151.8 A 75.9 75.9 0 0 0 910.8 75.9 L 891.8249999999999 75.9 A 56.925000000000004 56.925000000000004 0 0 1 834.9 132.82500000000002" fill="#5762f8"/><rect x="910.8000000000001" y="0" width="151.8" height="151.8" fill="#ffffff"/><rect x="910.8" y="0" width="75.9" height="75.9" fill="#e74a6c"/><polygon points="910.8,0 986.6999999999999,0 910.8,75.9" fill="#c4c8fd"/><rect x="986.7" y="0" width="75.9" height="75.9" fill="#fbdfe5"/><polygon points="986.7,0 1062.6000000000001,0 1062.6000000000001,75.9" fill="#fcecf0"/><rect x="910.8" y="75.9" width="75.9" height="75.9" fill="#b3b7fc"/><polygon points="986.6999999999999,75.9 986.6999999999999,151.8 910.8,151.8" fill="#8189fa"/><rect x="986.7" y="75.9" width="75.9" height="75.9" fill="#eb6884"/><polygon points="986.7,75.9 1062.6000000000001,151.8 986.7,151.8" fill="#fad7de"/><rect x="1062.6" y="0" width="151.8" height="151.8" fill="#d7dafd"/><rect x="1062.6" y="0" width="151.8" height="151.8" fill="#f6b9c6"/><rect x="1214.4" y="0" width="151.8" height="151.8" fill="#ffffff"/><rect x="1214.4" y="0" width="75.9" height="75.9" fill="#f3a3b4"/><path d="M 1214.4 0 A 75.9 75.9 0 0 0 1290.3000000000002 75.9 L 1290.3000000000002 0" fill="#e7e9fe"/><rect x="1290.3" y="0" width="75.9" height="75.9" fill="#878ffa"/><path d="M 1290.3 75.9 A 75.9 75.9 0 0 0 1366.2 0 L 1290.3 0" fill="#9da4fb"/><rect x="1214.4" y="75.9" width="75.9" height="75.9" fill="#a5abfb"/><path d="M 1214.4 151.8 A 75.9 75.9 0 0 1  1290.3000000000002 75.9 L 1290.3000000000002 151.8" fill="#ee8098"/><rect x="1290.3" y="75.9" width="75.9" height="75.9" fill="#6e77f9"/><path d="M 1290.3 75.9 A 75.9 75.9 0 0 1 1366.2 151.8 L 1290.3 151.8" fill="#f9d2da"/><rect x="1366.2" y="0" width="151.8" height="151.8" fill="#ee8299"/><path d="M 1366.2 151.8 A 151.8 151.8 0 0 0 1518 0 L 1366.2 0" fill="#d6d8fd"/><rect x="0" y="151.8" width="151.8" height="151.8" fill="#fceaee"/><rect x="0" y="151.8" width="151.8" height="151.8" fill="#ec718c"/><rect x="151.8" y="151.8" width="151.8" height="151.8" fill="#f29caf"/><polygon points="151.8,151.8 303.6,151.8 303.6,303.6" fill="#f6b8c5"/><rect x="303.6" y="151.8" width="151.8" height="151.8" fill="#949bfb"/><rect x="303.6" y="151.8" width="151.8" height="151.8" fill="#f6b9c6"/><rect x="455.4" y="151.8" width="151.8" height="151.8" fill="#f9d1d9"/><path d="M 455.4 303.6 A 151.8 151.8 0 0 1  607.2 151.8 L 455.4 303.6 A 151.8 151.8 0 0 0 607.2 151.8" fill="#616bf8"/><rect x="607.2" y="151.8" width="151.8" height="151.8" fill="#fef7f8"/><polygon points="607.2,151.8 759,151.8 607.2,303.6" fill="#e6476a"/><rect x="759" y="151.8" width="151.8" height="151.8" fill="#b8bdfc"/><rect x="759" y="151.8" width="151.8" height="151.8" fill="#7c85fa"/><rect x="910.8000000000001" y="151.8" width="151.8" height="151.8" fill="#ffffff"/><rect x="910.8" y="151.8" width="75.9" height="75.9" fill="#8089fa"/><polygon points="910.8,151.8 986.6999999999999,151.8 910.8,227.70000000000002" fill="#f2a1b2"/><rect x="986.7" y="151.8" width="75.9" height="75.9" fill="#f7c5d0"/><polygon points="1062.6000000000001,151.8 1062.6000000000001,227.70000000000002 986.7,227.70000000000002" fill="#f5b6c3"/><rect x="910.8" y="227.7" width="75.9" height="75.9" fill="#f5b5c3"/><polygon points="910.8,227.7 986.6999999999999,227.7 986.6999999999999,303.6" fill="#b1b6fc"/><rect x="986.7" y="227.7" width="75.9" height="75.9" fill="#f2a1b3"/><polygon points="986.7,227.7 1062.6000000000001,303.6 986.7,303.6" fill="#f7c6d1"/><rect x="1062.6000000000001" y="151.8" width="151.8" height="151.8" fill="#ffffff"/><rect x="1062.6" y="151.8" width="75.9" height="75.9" fill="#ec748e"/><polygon points="1062.6,151.8 1138.5,151.8 1062.6,227.70000000000002" fill="#e5e7fe"/><rect x="1138.5" y="151.8" width="75.9" height="75.9" fill="#dde0fe"/><polygon points="1214.4,151.8 1214.4,227.70000000000002 1138.5,227.70000000000002" fill="#fdeff2"/><rect x="1062.6" y="227.7" width="75.9" height="75.9" fill="#adb2fc"/><polygon points="1062.6,227.7 1138.5,227.7 1138.5,303.6" fill="#cdd0fd"/><rect x="1138.5" y="227.7" width="75.9" height="75.9" fill="#f29daf"/><polygon points="1138.5,227.7 1214.4,303.6 1138.5,303.6" fill="#6d77f9"/><rect x="1214.4" y="151.8" width="151.8" height="151.8" fill="#ffffff"/><rect x="1214.4" y="151.8" width="75.9" height="75.9" fill="#b7bbfc"/><polygon points="1214.4,151.8 1290.3000000000002,151.8 1214.4,227.70000000000002" fill="#6d76f9"/><rect x="1290.3" y="151.8" width="75.9" height="75.9" fill="#ef859c"/><polygon points="1290.3,151.8 1366.2,151.8 1366.2,227.70000000000002" fill="#8c93fa"/><rect x="1214.4" y="227.7" width="75.9" height="75.9" fill="#7c85fa"/><polygon points="1214.4,227.7 1290.3000000000002,303.6 1214.4,303.6" fill="#eceefe"/><rect x="1290.3" y="227.7" width="75.9" height="75.9" fill="#777ff9"/><polygon points="1366.2,227.7 1366.2,303.6 1290.3,303.6" fill="#fdf0f3"/><rect x="1366.2" y="151.8" width="151.8" height="151.8" fill="#c5c9fd"/><rect x="1366.2" y="151.8" width="151.8" height="151.8" fill="#e4e5fe"/><rect x="0" y="303.6" width="151.8" height="151.8" fill="#ffffff"/><rect x="0" y="303.6" width="75.9" height="75.9" fill="#969dfb"/><path d="M 0 303.6 A 75.9 75.9 0 0 0 75.9 379.5 L 75.9 303.6" fill="#bdc2fc"/><rect x="75.9" y="303.6" width="75.9" height="75.9" fill="#c6cafd"/><path d="M 75.9 379.5 A 75.9 75.9 0 0 0 151.8 303.6 L 75.9 303.6" fill="#afb4fc"/><rect x="0" y="379.5" width="75.9" height="75.9" fill="#f7c3ce"/><path d="M 0 455.4 A 75.9 75.9 0 0 1  75.9 379.5 L 75.9 455.4" fill="#f9d4dc"/><rect x="75.9" y="379.5" width="75.9" height="75.9" fill="#f9d3db"/><path d="M 75.9 379.5 A 75.9 75.9 0 0 1 151.8 455.4 L 75.9 455.4" fill="#f6beca"/><rect x="151.8" y="303.6" width="151.8" height="151.8" fill="#fbe3e8"/><path d="M 151.8 303.6 A 151.8 151.8 0 0 0 303.6 455.40000000000003 L 303.6 303.6" fill="#f3f4ff"/><rect x="303.6" y="303.6" width="151.8" height="151.8" fill="#a6acfb"/><path d="M 303.6 455.40000000000003 A 151.8 151.8 0 0 1  455.40000000000003 303.6 L 455.40000000000003 455.40000000000003" fill="#e7e8fe"/><rect x="455.4" y="303.6" width="151.8" height="151.8" fill="#ea5e7c"/><rect x="455.4" y="303.6" width="151.8" height="151.8" fill="#f08fa4"/><rect x="607.2" y="303.6" width="151.8" height="151.8" fill="#ffffff"/><rect x="607.2" y="303.6" width="75.9" height="75.9" fill="#7f87fa"/><polygon points="607.2,303.6 683.1,303.6 607.2,379.5" fill="#fdedf0"/><rect x="683.1" y="303.6" width="75.9" height="75.9" fill="#f7c5d0"/><polygon points="683.1,303.6 759,303.6 759,379.5" fill="#fdfdff"/><rect x="607.2" y="379.5" width="75.9" height="75.9" fill="#dcdefe"/><polygon points="683.1,379.5 683.1,455.4 607.2,455.4" fill="#5b66f8"/><rect x="683.1" y="379.5" width="75.9" height="75.9" fill="#e6e8fe"/><polygon points="683.1,379.5 759,455.4 683.1,455.4" fill="#f7c4cf"/><rect x="759" y="303.6" width="151.8" height="151.8" fill="#ffffff"/><rect x="759" y="303.6" width="75.9" height="75.9" fill="#f5b4c2"/><path d="M 759 303.6 A 75.9 75.9 0 0 0 834.9 379.5 L 834.9 303.6" fill="#a1a7fb"/><rect x="834.9" y="303.6" width="75.9" height="75.9" fill="#8e96fa"/><path d="M 834.9 379.5 A 75.9 75.9 0 0 0 910.8 303.6 L 834.9 303.6" fill="#fbe3e8"/><rect x="759" y="379.5" width="75.9" height="75.9" fill="#6771f9"/><path d="M 759 455.4 A 75.9 75.9 0 0 1  834.9 379.5 L 834.9 455.4" fill="#b8bdfc"/><rect x="834.9" y="379.5" width="75.9" height="75.9" fill="#ee7e96"/><path d="M 834.9 379.5 A 75.9 75.9 0 0 1 910.8 455.4 L 834.9 455.4" fill="#8c94fa"/><rect x="910.8" y="303.6" width="151.8" height="151.8" fill="#eceefe"/><path d="M 910.8 455.40000000000003 A 151.8 151.8 0 0 1  1062.6 303.6 L 910.8 455.40000000000003 A 151.8 151.8 0 0 0 1062.6 303.6" fill="#e95c7b"/><rect x="1062.6000000000001" y="303.6" width="151.8" height="151.8" fill="#ffffff"/><rect x="1062.6" y="303.6" width="75.9" height="75.9" fill="#e74a6c"/><path d="M 1062.6 303.6 A 75.9 75.9 0 0 0 1138.5 379.5 L 1138.5 303.6" fill="#e74b6c"/><rect x="1138.5" y="303.6" width="75.9" height="75.9" fill="#e95a79"/><path d="M 1138.5 379.5 A 75.9 75.9 0 0 0 1214.4 303.6 L 1138.5 303.6" fill="#f7c0cc"/><rect x="1062.6" y="379.5" width="75.9" height="75.9" fill="#f6bbc8"/><path d="M 1062.6 455.4 A 75.9 75.9 0 0 1  1138.5 379.5 L 1138.5 455.4" fill="#bec2fc"/><rect x="1138.5" y="379.5" width="75.9" height="75.9" fill="#f29eb0"/><path d="M 1138.5 379.5 A 75.9 75.9 0 0 1 1214.4 455.4 L 1138.5 455.4" fill="#f5b6c4"/><rect x="1214.4" y="303.6" width="151.8" height="151.8" fill="#a3a9fb"/><path d="M 1214.4 455.40000000000003 A 151.8 151.8 0 0 1  1366.2 303.6 L 1214.4 455.40000000000003 A 151.8 151.8 0 0 0 1366.2 303.6" fill="#fadce3"/><rect x="1366.2" y="303.6" width="151.8" height="151.8" fill="#f3a9b9"/><rect x="1366.2" y="303.6" width="151.8" height="151.8" fill="#dbddfd"/><rect x="0" y="455.4" width="151.8" height="151.8" fill="#f8c8d2"/><polygon points="0,455.4 151.8,455.4 151.8,607.2" fill="#e95e7c"/><rect x="151.8" y="455.40000000000003" width="151.8" height="151.8" fill="#ffffff"/><rect x="151.8" y="455.4" width="75.9" height="75.9" fill="#bcc0fc"/><polygon points="151.8,455.4 227.70000000000002,455.4 151.8,531.3" fill="#656ff9"/><rect x="227.7" y="455.4" width="75.9" height="75.9" fill="#707af9"/><polygon points="227.7,455.4 303.6,455.4 303.6,531.3" fill="#5d68f8"/><rect x="151.8" y="531.3" width="75.9" height="75.9" fill="#fef8f9"/><polygon points="151.8,531.3 227.70000000000002,607.1999999999999 151.8,607.1999999999999" fill="#e7496b"/><rect x="227.7" y="531.3" width="75.9" height="75.9" fill="#8f97fa"/><polygon points="303.6,531.3 303.6,607.1999999999999 227.7,607.1999999999999" fill="#626df9"/><rect x="303.6" y="455.4" width="151.8" height="151.8" fill="#7982f9"/><polygon points="303.6,455.4 455.40000000000003,455.4 303.6,607.2" fill="#f4afbe"/><rect x="455.4" y="455.4" width="151.8" height="151.8" fill="#f9f9ff"/><polygon points="455.4,455.4 607.2,455.4 455.4,607.2" fill="#e64769"/><rect x="607.2" y="455.40000000000003" width="151.8" height="151.8" fill="#ffffff"/><rect x="607.2" y="455.4" width="75.9" height="75.9" fill="#cfd3fd"/><path d="M 607.2 531.3 A 75.9 75.9 0 0 1 683.1 455.4 L 683.1 474.375 A 56.925000000000004 56.925000000000004 0 0 0 626.1750000000001 531.3" fill="#f198ab"/><rect x="683.1" y="455.4" width="75.9" height="75.9" fill="#ee839a"/><path d="M 683.1 455.4 A 75.9 75.9 0 0 1 759 531.3 L 740.025 531.3 A 56.925000000000004 56.925000000000004 0 0 0 683.1 474.375" fill="#f6bbc8"/><rect x="607.2" y="531.3" width="75.9" height="75.9" fill="#606af8"/><path d="M 607.2 531.3 A 75.9 75.9 0 0 0 683.1 607.1999999999999 L 683.1 588.2249999999999 A 56.925000000000004 56.925000000000004 0 0 1 626.1750000000001 531.3" fill="#fdf1f4"/><rect x="683.1" y="531.3" width="75.9" height="75.9" fill="#fffdfd"/><path d="M 683.1 607.1999999999999 A 75.9 75.9 0 0 0 759 531.3 L 740.025 531.3 A 56.925000000000004 56.925000000000004 0 0 1 683.1 588.2249999999999" fill="#ec6d88"/><rect x="759" y="455.40000000000003" width="151.8" height="151.8" fill="#ffffff"/><rect x="759" y="455.4" width="75.9" height="75.9" fill="#ef899f"/><path d="M 759 531.3 A 75.9 75.9 0 0 1 834.9 455.4 L 834.9 474.375 A 56.925000000000004 56.925000000000004 0 0 0 777.975 531.3" fill="#eb6884"/><rect x="834.9" y="455.4" width="75.9" height="75.9" fill="#f6bdc9"/><path d="M 834.9 455.4 A 75.9 75.9 0 0 1 910.8 531.3 L 891.8249999999999 531.3 A 56.925000000000004 56.925000000000004 0 0 0 834.9 474.375" fill="#9299fa"/><rect x="759" y="531.3" width="75.9" height="75.9" fill="#f08da2"/><path d="M 759 531.3 A 75.9 75.9 0 0 0 834.9 607.1999999999999 L 834.9 588.2249999999999 A 56.925000000000004 56.925000000000004 0 0 1 777.975 531.3" fill="#ef8aa0"/><rect x="834.9" y="531.3" width="75.9" height="75.9" fill="#bdc2fc"/><path d="M 834.9 607.1999999999999 A 75.9 75.9 0 0 0 910.8 531.3 L 891.8249999999999 531.3 A 56.925000000000004 56.925000000000004 0 0 1 834.9 588.2249999999999" fill="#6e77f9"/><rect x="910.8" y="455.4" width="151.8" height="151.8" fill="#959cfb"/><polygon points="910.8,455.4 1062.6,455.4 910.8,607.2" fill="#d1d4fd"/><rect x="1062.6" y="455.4" width="151.8" height="151.8" fill="#9da3fb"/><rect x="1062.6" y="455.4" width="151.8" height="151.8" fill="#8088fa"/><rect x="1214.4" y="455.4" width="151.8" height="151.8" fill="#7f87fa"/><path d="M 1214.4 607.2 A 151.8 151.8 0 0 1  1366.2 455.4 L 1366.2 607.2" fill="#f9f9ff"/><rect x="1366.2" y="455.40000000000003" width="151.8" height="151.8" fill="#ffffff"/><rect x="1366.2" y="455.4" width="75.9" height="75.9" fill="#cacdfd"/><path d="M 1366.2 531.3 A 75.9 75.9 0 0 1 1442.1000000000001 455.4 L 1442.1000000000001 474.375 A 56.925000000000004 56.925000000000004 0 0 0 1385.175 531.3" fill="#7982f9"/><rect x="1442.1" y="455.4" width="75.9" height="75.9" fill="#ea617e"/><path d="M 1442.1 455.4 A 75.9 75.9 0 0 1 1518 531.3 L 1499.0249999999999 531.3 A 56.925000000000004 56.925000000000004 0 0 0 1442.1 474.375" fill="#c6cafd"/><rect x="1366.2" y="531.3" width="75.9" height="75.9" fill="#f6f7ff"/><path d="M 1366.2 531.3 A 75.9 75.9 0 0 0 1442.1000000000001 607.1999999999999 L 1442.1000000000001 588.2249999999999 A 56.925000000000004 56.925000000000004 0 0 1 1385.175 531.3" fill="#e8eafe"/><rect x="1442.1" y="531.3" width="75.9" height="75.9" fill="#9097fa"/><path d="M 1442.1 607.1999999999999 A 75.9 75.9 0 0 0 1518 531.3 L 1499.0249999999999 531.3 A 56.925000000000004 56.925000000000004 0 0 1 1442.1 588.2249999999999" fill="#f9d5dd"/><rect x="0" y="607.2" width="151.8" height="151.8" fill="#ffffff"/><rect x="0" y="607.2" width="75.9" height="75.9" fill="#f7c2cd"/><polygon points="0,607.2 75.9,607.2 0,683.1" fill="#ec6e89"/><rect x="75.9" y="607.2" width="75.9" height="75.9" fill="#f2a0b2"/><polygon points="75.9,607.2 151.8,607.2 151.8,683.1" fill="#fef9fa"/><rect x="0" y="683.1" width="75.9" height="75.9" fill="#f9cfd8"/><polygon points="75.9,683.1 75.9,759 0,759" fill="#5e68f8"/><rect x="75.9" y="683.1" width="75.9" height="75.9" fill="#5e68f8"/><polygon points="75.9,683.1 151.8,759 75.9,759" fill="#f7c3ce"/><rect x="151.8" y="607.2" width="151.8" height="151.8" fill="#ffffff"/><rect x="151.8" y="607.2" width="75.9" height="75.9" fill="#c5c9fd"/><path d="M 151.8 683.1 A 75.9 75.9 0 0 0 227.70000000000002 607.2 L 151.8 607.2" fill="#ef869c"/><rect x="227.7" y="607.2" width="75.9" height="75.9" fill="#dbdefe"/><path d="M 227.7 607.2 A 75.9 75.9 0 0 0 303.6 683.1 L 303.6 607.2" fill="#b9befc"/><rect x="151.8" y="683.1" width="75.9" height="75.9" fill="#f7c6d1"/><path d="M 151.8 683.1 A 75.9 75.9 0 0 1 227.70000000000002 759 L 151.8 759" fill="#636df9"/><rect x="227.7" y="683.1" width="75.9" height="75.9" fill="#e85172"/><path d="M 227.7 759 A 75.9 75.9 0 0 1  303.6 683.1 L 303.6 759" fill="#f2a0b1"/><rect x="303.6" y="607.2" width="151.8" height="151.8" fill="#f1f2fe"/><rect x="303.6" y="607.2" width="151.8" height="151.8" fill="#babffc"/><rect x="455.4" y="607.2" width="151.8" height="151.8" fill="#b9befc"/><path d="M 455.4 607.2 A 151.8 151.8 0 0 1  607.2 759 L 455.4 607.2 A 151.8 151.8 0 0 0 607.2 759" fill="#cfd2fd"/><rect x="607.2" y="607.2" width="151.8" height="151.8" fill="#ffffff"/><rect x="607.2" y="607.2" width="75.9" height="75.9" fill="#f8ccd5"/><path d="M 607.2 607.2 A 75.9 75.9 0 0 1 683.1 683.1 L 607.2 683.1" fill="#8f97fa"/><rect x="683.1" y="607.2" width="75.9" height="75.9" fill="#aeb3fc"/><path d="M 683.1 683.1 A 75.9 75.9 0 0 1  759 607.2 L 759 683.1" fill="#f6b9c6"/><rect x="607.2" y="683.1" width="75.9" height="75.9" fill="#fce9ed"/><path d="M 607.2 759 A 75.9 75.9 0 0 0 683.1 683.1 L 607.2 683.1" fill="#fdfdff"/><rect x="683.1" y="683.1" width="75.9" height="75.9" fill="#f7c6d0"/><path d="M 683.1 683.1 A 75.9 75.9 0 0 0 759 759 L 759 683.1" fill="#dee0fe"/><rect x="759" y="607.2" width="151.8" height="151.8" fill="#ffffff"/><rect x="759" y="607.2" width="75.9" height="75.9" fill="#e7e8fe"/><polygon points="759,607.2 834.9,607.2 759,683.1" fill="#dcdffe"/><rect x="834.9" y="607.2" width="75.9" height="75.9" fill="#fce9ed"/><polygon points="834.9,607.2 910.8,607.2 910.8,683.1" fill="#8991fa"/><rect x="759" y="683.1" width="75.9" height="75.9" fill="#fdeef1"/><polygon points="759,683.1 834.9,759 759,759" fill="#e85675"/><rect x="834.9" y="683.1" width="75.9" height="75.9" fill="#daddfd"/><polygon points="910.8,683.1 910.8,759 834.9,759" fill="#eaecfe"/><rect x="910.8" y="607.2" width="151.8" height="151.8" fill="#f6f7ff"/><path d="M 910.8 759 A 151.8 151.8 0 0 1  1062.6 607.2 L 910.8 759 A 151.8 151.8 0 0 0 1062.6 607.2" fill="#bcc0fc"/><rect x="1062.6" y="607.2" width="151.8" height="151.8" fill="#f3a2b4"/><path d="M 1062.6 759 A 151.8 151.8 0 0 0 1214.3999999999999 607.2 L 1062.6 607.2" fill="#f3a6b7"/><rect x="1214.4" y="607.2" width="151.8" height="151.8" fill="#8991fa"/><polygon points="1214.4,607.2 1366.2,759 1214.4,759" fill="#aab0fb"/><rect x="1366.2" y="607.2" width="151.8" height="151.8" fill="#ffffff"/><rect x="1366.2" y="607.2" width="75.9" height="75.9" fill="#f5f6ff"/><circle cx="1404.15" cy="645.1500000000001" r="37.95" fill="#ee7d95"/><rect x="1442.1" y="607.2" width="75.9" height="75.9" fill="#d9dcfd"/><rect x="1442.1" y="607.2" width="75.9" height="75.9" fill="#f7c6d1"/><rect x="1366.2" y="683.1" width="75.9" height="75.9" fill="#f9cfd8"/><circle cx="1404.15" cy="721.0500000000001" r="37.95" fill="#e85675"/><rect x="1442.1" y="683.1" width="75.9" height="75.9" fill="#fce7eb"/><rect x="1442.1" y="683.1" width="75.9" height="75.9" fill="#f7f8ff"/></g></svg>