<svg width="66" height="68" viewBox="0 0 66 68" fill="none" xmlns="http://www.w3.org/2000/svg">
<path id="Vector" d="M51.3333 34C51.3333 44.4342 43.1273 52.8889 33 52.8889C22.8727 52.8889 14.6667 44.4342 14.6667 34C14.6667 23.5658 22.8727 15.1111 33 15.1111C43.1273 15.1111 51.3333 23.5658 51.3333 34ZM33 7.55556C34.2467 7.55556 35.464 7.68022 36.6667 7.85778V0H29.3333V7.85778C30.536 7.68022 31.7533 7.55556 33 7.55556ZM17.6587 12.8482L12.2613 7.28356L7.073 12.6291L12.474 18.1938C13.948 16.1651 15.6933 14.3669 17.6587 12.8482V12.8482ZM53.526 18.19L58.927 12.6253L53.7423 7.28356L48.3413 12.8482C50.3103 14.3669 52.052 16.1651 53.526 18.19ZM33 60.4444C31.7533 60.4444 30.536 60.3198 29.3333 60.1422V68H36.6667V60.1422C35.464 60.3198 34.2467 60.4444 33 60.4444ZM48.345 55.148L53.746 60.7127L58.9343 55.3671L53.5333 49.8062C52.0557 51.8311 50.3103 53.6293 48.345 55.148ZM7.33333 34C7.33333 32.7156 7.45433 31.4613 7.62667 30.2222H0V37.7778H7.62667C7.45433 36.5387 7.33333 35.2844 7.33333 34ZM58.3733 30.2222C58.5457 31.4613 58.6667 32.7156 58.6667 34C58.6667 35.2844 58.5457 36.5387 58.3733 37.7778H66V30.2222H58.3733V30.2222ZM12.4703 49.8062L7.06933 55.3709L12.254 60.7127L17.655 55.148C15.6897 53.6293 13.9443 51.8349 12.4703 49.8062Z" fill="#F46C2D"/>
</svg>
